<?xml version="1.0" encoding="utf-8"?>
<!-- Generator: Adobe Illustrator 16.0.0, SVG Export Plug-In . SVG Version: 6.00 Build 0)  -->
<!DOCTYPE svg PUBLIC "-//W3C//DTD SVG 1.1//EN" "http://www.w3.org/Graphics/SVG/1.1/DTD/svg11.dtd">
<svg version="1.1" id="Layer_1" xmlns="http://www.w3.org/2000/svg" xmlns:xlink="http://www.w3.org/1999/xlink" x="0px" y="0px"
	 width="148px" height="124.539px" fill="white" viewBox="0 0 148 124.539" enable-background="new 0 0 148 124.539" xml:space="preserve">
<g>
	<path id="Soft_Star_2_" d="M2.684,0l19.49,2.313C47.34,5.299,67.182,25.14,70.167,50.306l2.313,19.489
		c0.276,2.324,3.647,2.324,3.922,0l2.313-19.489c2.986-25.166,22.828-45.007,47.994-47.994L146.199,0"/>
	<path id="Soft_Star_x5F_2" d="M74.988,84.025c-0.076-0.648-1.017-0.648-1.094,0L73.25,89.46
		c-0.833,7.02-6.367,12.553-13.386,13.387l-5.436,0.645c-0.648,0.076-0.648,1.016,0,1.094l5.436,0.645
		c7.019,0.834,12.553,6.367,13.386,13.387l0.645,5.436c0.077,0.648,1.018,0.648,1.094,0l0.645-5.436
		c0.834-7.02,6.367-12.553,13.387-13.387l5.436-0.645c0.648-0.078,0.648-1.018,0-1.094l-5.436-0.645
		C82,102.014,76.467,96.48,75.633,89.46L74.988,84.025z"/>
</g>
</svg>
