<svg width="97" height="91" viewBox="0 0 97 91" fill="none" xmlns="http://www.w3.org/2000/svg">
<g clip-path="url(#clip0_4071_720)">
<path d="M73.6669 0.427734C86.1717 0.427734 96.5938 10.752 96.5938 25.7897C96.5938 45.8569 82.6006 75.0701 43.5938 90.4121C60.2682 80.0878 70.0957 62.6778 70.0957 48.5141C70.0957 36.4184 64.1386 26.972 50.74 23.1521C50.741 17.1262 53.1567 11.3474 57.456 7.08607C61.7553 2.82476 67.5862 0.429803 73.6669 0.427734Z" fill="#99742B"/>
</g>
<path d="M14.869 57.4277C7.08295 57.4277 0.59375 50.8879 0.59375 41.3623C0.59375 28.6509 9.30648 10.1461 33.5938 0.427734C23.2115 6.96758 17.0925 17.9959 17.0925 26.9678C17.0925 34.6297 20.8017 40.6135 29.1442 43.0331C29.1436 46.8502 27.6395 50.5108 24.9625 53.2101C22.2856 55.9094 18.655 57.4264 14.869 57.4277Z" fill="#99742B"/>
<defs>
<clipPath id="clip0_4071_720">
<rect width="53" height="90" fill="white" transform="translate(43.5938 0.427734)"/>
</clipPath>
</defs>
</svg>
