<svg width="17" height="17" viewBox="0 0 17 17" fill="none" xmlns="http://www.w3.org/2000/svg">
<path id="Soft Star" d="M8.50744 0.689649C8.47741 0.436784 8.11048 0.436784 8.08045 0.689649L7.82875 2.81096C7.50373 5.55015 5.34409 7.70979 2.60493 8.03481L0.483617 8.28651C0.230721 8.31654 0.230721 8.68346 0.483617 8.71349L2.60493 8.9652C5.34409 9.29021 7.50373 11.4499 7.82875 14.189L8.08045 16.3103C8.11048 16.5632 8.47741 16.5632 8.50744 16.3103L8.75914 14.189C9.08415 11.4499 11.2438 9.29021 13.983 8.9652L16.1043 8.71349C16.3572 8.68346 16.3572 8.31654 16.1043 8.28651L13.983 8.03481C11.2438 7.70979 9.08415 5.55015 8.75914 2.81096L8.50744 0.689649Z" fill="#fff"/>
</svg>
