<svg width="37" height="34" viewBox="0 0 37 34" fill="none" xmlns="http://www.w3.org/2000/svg">
<g clip-path="url(#clip0_3931_1508)">
<path d="M3.7377 32.7847V26.5663C3.19983 26.5663 2.68404 26.5663 2.16824 26.5663C1.17266 26.5663 0.741672 26.1344 0.735863 25.1501C0.731217 24.383 0.731217 23.6159 0.735863 22.8488C0.742834 21.8834 1.13433 21.4821 2.07066 21.4774C2.84203 21.4774 3.61224 21.4774 4.44402 21.4774C4.45679 21.2072 4.47654 20.9806 4.47654 20.7528C4.47654 17.1745 4.46841 13.595 4.47654 10.0132C4.48468 7.62573 5.90776 5.67136 8.12197 5.0683C8.76439 4.89363 9.45909 4.89599 10.1306 4.85822C10.4233 4.84052 10.6045 4.78859 10.7753 4.50417C13.5947 -0.192918 19.8482 -0.195279 22.6328 4.50417C22.8047 4.79213 22.9813 4.8299 23.2729 4.86412C24.1488 4.97152 25.084 4.96444 25.8763 5.29725C27.8697 6.13517 28.8967 7.75909 28.9246 9.95539C28.9606 12.7878 28.9339 15.6202 28.9339 18.4526V19.1395C31.1074 18.7359 32.9824 19.2091 34.51 20.7917C35.6044 21.9223 36.1364 23.302 36.1515 24.8869C36.1875 27.7937 33.784 31.0156 29.7122 30.7595V32.8C30.5661 32.8 31.4106 32.8 32.2563 32.8C32.4503 32.8 32.6804 32.7481 32.8267 32.8354C33.0184 32.9534 33.2554 33.1718 33.2647 33.3582C33.274 33.5447 33.0614 33.7996 32.879 33.9165C32.721 34.0179 32.4678 33.9825 32.2575 33.9825C21.9013 33.9825 11.5451 33.9825 1.18893 33.9825H0.898501C0.486097 33.9755 0.139908 33.8409 0.152687 33.3582C0.164304 32.9098 0.493066 32.7941 0.886883 32.7965C1.82089 32.7882 2.74677 32.7847 3.7377 32.7847ZM28.5029 32.7493C28.5029 32.1344 28.4738 31.5832 28.5122 31.0368C28.5435 30.6037 28.4099 30.3818 28.0022 30.2024C27.3221 29.9116 26.7074 29.4832 26.1955 28.9433C25.6836 28.4034 25.2853 27.7633 25.0247 27.062C24.8679 26.6584 24.6646 26.5569 24.265 26.5581C18.0336 26.5699 11.8019 26.573 5.56971 26.5675C5.36641 26.5675 5.16311 26.5852 4.96446 26.5946V32.7552L28.5029 32.7493ZM22.3575 7.96562C22.3662 7.20846 22.2272 6.45704 21.9486 5.75475C21.6699 5.05245 21.257 4.41319 20.7338 3.87388C20.2106 3.33457 19.5874 2.9059 18.9003 2.6126C18.2131 2.3193 17.4755 2.1672 16.7302 2.16507C13.6389 2.15326 11.0878 4.70008 11.0657 7.82282C11.0436 11.0671 13.5053 13.6517 16.6419 13.6812C17.3877 13.6931 18.1284 13.5542 18.8209 13.2727C19.5134 12.9912 20.1439 12.5726 20.6757 12.0413C21.2075 11.51 21.6301 10.8766 21.9188 10.178C22.2075 9.47928 22.3566 8.72927 22.3575 7.97152V7.96562ZM1.91151 25.3389H24.5136C24.6425 24.4243 24.7657 23.5569 24.8877 22.6989H1.91615L1.91151 25.3389ZM5.69982 19.8913C7.62127 16.9243 10.1619 15.0349 13.4728 14.086C10.5069 12.1493 9.40681 9.48332 10.0864 6.07616C7.72931 5.75515 5.70214 7.44044 5.66264 9.85272C5.60921 13.0734 5.64638 16.2953 5.64754 19.516C5.64754 19.5927 5.66729 19.6659 5.69982 19.8913ZM27.7257 19.6552C27.742 19.4534 27.7698 19.2528 27.771 19.051C27.771 16.0848 27.771 13.119 27.771 10.1537C27.7754 9.8203 27.7493 9.48724 27.6932 9.15877C27.2935 7.03446 25.2013 5.70677 23.3368 6.11275C24.009 9.52817 22.8787 12.1883 19.9458 14.0931C23.2462 15.0207 25.7473 16.9102 27.7257 19.6623V19.6552ZM30.386 29.5439C31.2996 29.5415 32.1919 29.2638 32.95 28.7459C33.7081 28.2279 34.2978 27.4931 34.6445 26.6344C34.9912 25.7757 35.0792 24.8318 34.8975 23.9222C34.7157 23.0127 34.2723 22.1784 33.6235 21.525C32.9746 20.8716 32.1495 20.4286 31.2526 20.2519C30.3557 20.0753 29.4274 20.1731 28.5852 20.5328C27.7431 20.8926 27.025 21.4982 26.5218 22.2729C26.0187 23.0475 25.7532 23.9565 25.7589 24.8846C25.7663 26.1258 26.2572 27.3136 27.1243 28.188C27.9915 29.0625 29.1642 29.5526 30.386 29.551V29.5439ZM14.9609 15.0526C11.4351 15.3972 6.7651 18.8846 6.30739 21.4361H12.9976C13.6598 19.2799 14.3011 17.1958 14.9609 15.0526ZM26.6105 20.348C24.6565 17.4129 21.9822 15.6426 18.4414 15.0006C19.1221 17.2087 19.7727 19.3177 20.4372 21.4703C22.0055 21.4703 23.669 21.4703 25.3326 21.4621C25.4978 21.4565 25.656 21.3927 25.7798 21.2815C26.0679 20.9959 26.3224 20.6749 26.6105 20.3445V20.348ZM16.7128 21.4739C17.2355 21.4739 17.7583 21.481 18.2799 21.4739C18.8607 21.4633 19.1233 21.1092 18.9514 20.5604C18.4007 18.8043 17.8384 17.0518 17.3041 15.291C17.2065 14.9676 17.0648 14.8566 16.7383 14.8673C16.4119 14.8779 16.2237 14.9192 16.1122 15.2957C15.5859 17.0589 15.019 18.8102 14.4683 20.5663C14.3045 21.0868 14.552 21.4574 15.0875 21.4727C15.6231 21.488 16.1714 21.4703 16.7128 21.4703V21.4739Z" fill="white"/>
<path d="M29.5436 24.3972C30.2754 23.6419 30.9062 22.981 31.5498 22.3272C32.2922 21.5778 33.1507 21.5317 33.8035 22.1903C34.439 22.8335 34.3844 23.7422 33.6641 24.4857C32.7131 25.4645 31.7562 26.4369 30.7936 27.4031C30.0164 28.1832 29.2078 28.195 28.397 27.4279C27.9021 26.9558 27.4246 26.4708 26.9611 25.9704C26.3535 25.3142 26.3593 24.3984 26.9472 23.8012C27.535 23.204 28.4307 23.2111 29.0835 23.8225C29.249 24.0037 29.4027 24.1957 29.5436 24.3972ZM33.1112 23.2701C33.0147 23.1415 32.9474 22.9774 32.8788 22.9786C32.7182 22.9726 32.5604 23.0226 32.4316 23.1202C31.6695 23.8697 30.9283 24.6403 30.1744 25.398C29.6981 25.8771 29.4774 25.8771 29.0069 25.4157C28.7745 25.1797 28.5608 24.9212 28.3006 24.7229C28.1786 24.6309 27.9671 24.6592 27.7964 24.6332C27.8138 24.8221 27.7592 25.077 27.8591 25.1903C28.2959 25.6848 28.7745 26.1415 29.245 26.6065C29.5006 26.8602 29.7294 26.8284 29.985 26.5628C30.9144 25.5963 31.8635 24.6474 32.801 23.6867C32.9139 23.5555 33.0176 23.4163 33.1112 23.2701Z" fill="white"/>
</g>
<defs>
<clipPath id="clip0_3931_1508">
<rect width="36" height="33" fill="white" transform="translate(0.162109 0.974121)"/>
</clipPath>
</defs>
</svg>
