<svg width="33" height="32" viewBox="0 0 33 32" fill="none" xmlns="http://www.w3.org/2000/svg">
<g clip-path="url(#clip0_3931_1615)">
<path d="M6.89781 24.935C7.0598 23.2974 7.23479 21.515 7.41332 19.7339C7.4689 19.18 7.56349 18.6274 7.57768 18.0723C7.55836 17.8438 7.46289 17.6287 7.30691 17.4622C5.84787 15.7875 4.35099 14.1475 2.90967 12.4597C1.68592 11.0242 2.33504 9.16049 4.1618 8.75138C4.33443 8.7131 4.50469 8.66765 4.67732 8.63176C6.59631 8.21787 8.51411 7.79441 10.4367 7.39727C10.6168 7.36928 10.7878 7.29811 10.9353 7.1897C11.0827 7.08129 11.2024 6.93877 11.2844 6.77404C12.2918 4.97971 13.3287 3.18539 14.3657 1.40781C15.457 -0.467861 17.4895 -0.465468 18.5808 1.40781C19.6272 3.20811 20.6488 5.02397 21.7106 6.81471C21.8702 7.07142 22.117 7.2603 22.4046 7.34583C24.4891 7.82432 26.5819 8.27529 28.6712 8.72387C30.6481 9.14733 31.2913 11.0146 29.96 12.5518C28.5411 14.1846 27.0904 15.7816 25.6822 17.4216C25.4833 17.6715 25.3815 17.9863 25.396 18.3068C25.5836 20.4464 25.7992 22.584 26.0428 24.7197C26.2899 26.8609 24.4158 27.9351 22.699 27.1014C20.8262 26.1946 18.8977 25.4015 17.0059 24.5295C16.8419 24.4464 16.6607 24.4036 16.4773 24.4046C16.2938 24.4056 16.1132 24.4505 15.9501 24.5355C13.9794 25.4302 12.0025 26.3114 10.0193 27.1791C8.39706 27.8849 6.87535 26.8501 6.89781 24.935ZM8.46091 25.1455C8.44672 25.7173 8.86173 25.9614 9.50494 25.6755C11.6096 24.7412 13.7142 23.8082 15.8093 22.8536C16.0194 22.7483 16.2506 22.6935 16.4851 22.6935C16.7195 22.6935 16.9508 22.7483 17.1608 22.8536C19.256 23.8106 21.3574 24.752 23.4652 25.6779C24.1285 25.9721 24.5423 25.6898 24.4761 24.9936C24.2515 22.6562 24.0375 20.3176 23.7667 17.985C23.7088 17.4754 23.8105 17.1117 24.138 16.7433C25.6561 15.0423 27.1566 13.3257 28.6665 11.6175C29.3191 10.8795 29.2068 10.4727 28.2704 10.2694C26.2166 9.822 24.1675 9.35667 22.1055 8.95354C21.2719 8.78847 20.7245 8.40448 20.3106 7.62694C19.3647 5.85893 18.2852 4.16748 17.3452 2.39827C16.8356 1.4413 16.157 1.3456 15.5812 2.421C14.5608 4.32777 13.4281 6.17114 12.3639 8.05399C12.2606 8.25545 12.1126 8.42996 11.9315 8.56383C11.7503 8.69769 11.541 8.78728 11.3199 8.82555C9.11121 9.29207 6.90609 9.78252 4.6986 10.2694C3.7125 10.4883 3.6049 10.8675 4.28477 11.6379C5.79584 13.3449 7.31046 15.0495 8.80143 16.7744C9.01553 17.0242 9.1528 17.3319 9.19634 17.6596C9.23536 18.0663 9.12067 18.4874 9.07811 18.9025C8.87829 20.9648 8.67255 23.0234 8.46091 25.1455Z" fill="white"/>
<path d="M17.2818 29.6469C17.2818 30.1254 17.2983 30.6039 17.2759 31.0824C17.2487 31.6566 16.9212 32.0059 16.4707 32.0035C16.0202 32.0011 15.6879 31.6518 15.6761 31.0728C15.6548 30.0983 15.6548 29.123 15.6761 28.1469C15.6891 27.5571 15.9965 27.2425 16.4801 27.2461C16.9637 27.2497 17.2392 27.5655 17.2806 28.1564C17.2806 28.1971 17.2806 28.2366 17.2806 28.2761L17.2818 29.6469Z" fill="white"/>
<path d="M32.9979 19.4013C33.0228 20.0999 32.538 20.5473 32.0579 20.4037C31.0068 20.0891 29.9687 19.7291 28.9329 19.3678C28.46 19.2039 28.2874 18.8163 28.46 18.3678C28.6232 17.9371 28.9755 17.7409 29.4591 17.9012C30.4263 18.2218 31.4065 18.5065 32.3594 18.8654C32.6432 18.973 32.856 19.2781 32.9979 19.4013Z" fill="white"/>
<path d="M9.41181 3.64729C9.27584 3.79443 9.10913 4.12578 8.86793 4.19516C8.62672 4.26454 8.18333 4.18918 8.04027 4.00616C7.34148 3.12694 6.703 2.19628 6.06452 1.26921C5.82095 0.916327 5.95338 0.582582 6.24424 0.312237C6.53511 0.0418924 6.9714 -0.017917 7.20314 0.276352C7.95632 1.23333 8.64091 2.2525 9.34679 3.25134C9.38462 3.31355 9.3728 3.40924 9.41181 3.64729Z" fill="white"/>
<path d="M27.0984 0.8124C26.9948 1.0491 26.8763 1.27884 26.7437 1.50023C26.1872 2.29212 25.6228 3.07883 25.0505 3.86036C24.71 4.3221 24.2666 4.41182 23.8823 4.12592C23.498 3.84002 23.4555 3.40819 23.7913 2.92013C24.3553 2.1091 24.9039 1.28371 25.5282 0.520523C25.6442 0.402656 25.7844 0.311998 25.9389 0.25495C26.0933 0.197902 26.2583 0.175856 26.4221 0.190368C26.6751 0.231039 26.8737 0.589904 27.0984 0.8124Z" fill="white"/>
<path d="M0.637579 20.5233C0.421205 20.2948 0.0712227 20.0842 0.00973941 19.8055C-0.0458321 19.5567 0.14571 19.0567 0.347896 18.9765C1.40494 18.5591 2.4939 18.2169 3.58523 17.9C3.95768 17.7911 4.34432 17.9801 4.39516 18.3904C4.43181 18.6763 4.32539 19.1871 4.14567 19.2612C3.04252 19.7206 1.89917 20.083 0.637579 20.5233Z" fill="white"/>
</g>
<defs>
<clipPath id="clip0_3931_1615">
<rect width="33" height="32" fill="white"/>
</clipPath>
</defs>
</svg>
