<svg width="34" height="34" viewBox="0 0 34 34" fill="none" xmlns="http://www.w3.org/2000/svg">
<g clip-path="url(#clip0_3931_1432)">
<path d="M7.33744 10.2026V4.56032C7.22414 4.55126 7.13236 4.54219 7.04284 4.53766C6.3732 4.5048 6.23496 4.35978 6.23157 3.67432C6.23157 3.10782 6.23157 2.54133 6.23157 1.97483C6.23157 1.3041 6.39813 1.13641 7.06324 1.13528C8.45805 1.13528 9.85399 1.13528 11.2862 1.13528C11.3032 1.02198 11.3236 0.939271 11.3281 0.853163C11.3598 0.138244 11.4935 0.00341797 12.2096 0.00341797C15.3067 0.00341797 18.4037 0.00341797 21.5008 0.00341797C22.5931 0.00341797 22.601 0.0113489 22.7041 1.13641H26.4206C26.6665 1.13641 26.9123 1.12961 27.1571 1.13641C27.5401 1.15454 27.7531 1.36301 27.7599 1.74596C27.7701 2.46315 27.7689 3.18147 27.7599 3.89865C27.7599 4.30879 27.5333 4.51953 27.122 4.53426L26.6574 4.55579V10.2026H27.2568C29.2208 10.2026 31.1848 10.2026 33.1488 10.2026C33.8286 10.2026 33.994 10.3669 33.994 11.0286C33.994 18.4127 33.994 25.7968 33.994 33.1809C33.994 33.8187 33.8195 34 33.2009 34C22.3989 34 11.597 34 0.795101 34C0.173047 34 0.00195312 33.8199 0.00195312 33.1809C0.00195312 25.7975 0.00195312 18.4134 0.00195312 11.0286C0.00195312 10.3669 0.170782 10.2038 0.846091 10.2026C2.79119 10.2026 4.73629 10.2026 6.68139 10.2026H7.33744ZM8.54303 4.56712V32.8353H12.4634V32.1963C12.4634 29.6841 12.4634 27.1726 12.4634 24.6619C12.4634 23.9594 12.6221 23.8031 13.3314 23.802C15.7675 23.802 18.2036 23.802 20.6397 23.802C21.383 23.802 21.5303 23.9504 21.5303 24.697C21.5303 27.2077 21.5303 29.7192 21.5303 32.2314V32.8206H25.4665V4.57505H22.6917C22.6259 5.62534 22.5784 5.66952 21.5427 5.66952H17.7469C15.8963 5.66952 14.0456 5.66952 12.1949 5.66952C11.5094 5.66952 11.3644 5.52677 11.3315 4.85943C11.3315 4.76879 11.3179 4.67928 11.3088 4.56372L8.54303 4.56712ZM26.6585 32.8217H32.819V13.6333H26.6585V32.8217ZM7.33744 13.6447H1.18148V32.8319H7.33744V13.6447ZM12.4906 4.49234H21.5008V1.167H12.4952L12.4906 4.49234ZM17.6042 27.227V32.8172H20.3677V27.227H17.6042ZM16.3873 32.8364V27.2463H13.6316V32.8364H16.3873ZM13.6226 26.0238H20.3677V24.9644H13.6271L13.6226 26.0238ZM1.15882 12.4278H7.31478V11.3639H1.16448L1.15882 12.4278ZM32.8315 11.373H26.6801V12.438H32.8315V11.373ZM11.3156 2.30906H7.40996V3.35142H11.3202L11.3156 2.30906ZM26.5804 3.37407V2.2932H22.703V3.37407H26.5804Z" fill="white"/>
<path d="M10.1994 10.7101C10.1994 10.0303 10.2062 9.35046 10.1994 8.67066C10.1915 8.14722 10.4396 7.91609 10.9574 7.92403C11.5965 7.93536 12.2378 7.93196 12.8768 7.92403C13.3675 7.92403 13.6065 8.15062 13.6054 8.64234C13.6054 10.0556 13.6054 11.4676 13.6054 12.8786C13.6054 13.3737 13.3652 13.6015 12.8757 13.5969C12.2367 13.5901 11.5953 13.5867 10.9563 13.5969C10.4373 13.6049 10.1915 13.3703 10.1994 12.848C10.2062 12.141 10.1994 11.425 10.1994 10.7101ZM11.3642 12.4311H12.4281V9.1148H11.3642V12.4311Z" fill="white"/>
<path d="M15.2984 10.7381C15.2984 10.0583 15.2927 9.37854 15.2984 8.69875C15.3052 8.11072 15.4842 7.93511 16.0802 7.92831C16.7204 7.92152 17.3605 7.92831 18.0007 7.92831C18.4641 7.92831 18.6987 8.15492 18.6987 8.61831V12.9112C18.6987 13.3769 18.4619 13.6001 17.9996 13.5989C17.3401 13.5989 16.6807 13.5989 16.0224 13.5989C15.5318 13.5989 15.2916 13.3723 15.295 12.8795C15.3029 12.1691 15.2984 11.4485 15.2984 10.7381ZM16.4733 9.0953V12.4399H17.535V9.0953H16.4733Z" fill="white"/>
<path d="M23.8014 10.8007C23.8014 11.4805 23.7923 12.1603 23.8014 12.8333C23.8104 13.3443 23.5963 13.6106 23.0671 13.6038C22.4077 13.5958 21.7494 13.6038 21.0899 13.6038C20.6265 13.6038 20.3954 13.3772 20.3965 12.9115V8.61632C20.3965 8.14839 20.639 7.93652 21.1001 7.93652C21.7584 7.93652 22.4179 7.93652 23.0762 7.93652C23.5691 7.93652 23.8036 8.16312 23.8002 8.65824C23.7968 9.36976 23.8014 10.0892 23.8014 10.8007ZM21.5647 9.10124V12.4345H22.6252V9.09557L21.5647 9.10124Z" fill="white"/>
<path d="M15.2992 18.6558C15.2992 17.959 15.2992 17.2622 15.2992 16.5654C15.2992 16.1032 15.519 15.8652 15.9859 15.8652H18.0197C18.4503 15.8652 18.6995 16.0726 18.6995 16.5133C18.7041 17.962 18.7041 19.4115 18.6995 20.8617C18.6995 21.3331 18.4435 21.5415 17.9857 21.5359C17.327 21.5313 16.6683 21.5313 16.0096 21.5359C15.5122 21.5359 15.2924 21.29 15.2969 20.8028C15.3049 20.0868 15.2992 19.3707 15.2992 18.6558ZM17.5359 20.3859V17.0413H16.4799V20.3859H17.5359Z" fill="white"/>
<path d="M20.398 18.6558C20.398 17.959 20.398 17.2622 20.398 16.5654C20.398 16.1032 20.6189 15.8652 21.0858 15.8652H23.1185C23.5502 15.8652 23.7983 16.0726 23.7983 16.5133C23.8044 17.962 23.8044 19.4115 23.7983 20.8617C23.7983 21.3331 23.5411 21.5415 23.0845 21.5359C22.4251 21.5313 21.766 21.5313 21.1073 21.5359C20.6099 21.5359 20.3901 21.29 20.3946 20.8028C20.4025 20.0868 20.398 19.3707 20.398 18.6558ZM22.6199 20.3768V17.0334H21.5685V20.3768H22.6199Z" fill="white"/>
<path d="M10.1995 18.6673C10.1995 17.9875 10.2086 17.3077 10.1995 16.628C10.1904 16.117 10.4046 15.8518 10.9337 15.8575C11.592 15.8654 12.2515 15.8575 12.9109 15.8575C13.3744 15.8575 13.6055 16.0841 13.6055 16.5498C13.6055 17.9811 13.6055 19.4121 13.6055 20.8427C13.6055 21.3095 13.3642 21.5293 12.903 21.5225C12.2447 21.5225 11.5852 21.5225 10.9258 21.5225C10.4352 21.5225 10.1984 21.2959 10.2029 20.7996C10.2029 20.0983 10.1995 19.38 10.1995 18.6673ZM11.3801 17.0132V20.3578H12.4226V17.0132H11.3801Z" fill="white"/>
<path d="M31.4529 18.7692C31.4529 19.449 31.4529 20.1288 31.4529 20.8086C31.4529 21.298 31.2263 21.5405 30.7277 21.536C30.0671 21.5292 29.4054 21.536 28.7448 21.536C28.2769 21.536 28.0469 21.3094 28.0469 20.8414C28.0469 19.4252 28.0469 18.009 28.0469 16.5927C28.0469 16.1021 28.2735 15.8597 28.772 15.8653C29.4326 15.8721 30.0943 15.8653 30.7549 15.8653C31.2229 15.8653 31.4517 16.0919 31.4529 16.5599C31.4529 17.2963 31.4517 18.0327 31.4529 18.7692ZM30.2654 20.378V17.0391H29.2343V20.378H30.2654Z" fill="white"/>
<path d="M31.4513 26.6867C31.4513 27.3665 31.4513 28.0463 31.4513 28.7261C31.4513 29.2496 31.2031 29.4807 30.6842 29.4705C30.061 29.458 29.4378 29.4569 28.8146 29.4705C28.2979 29.4807 28.0407 29.2575 28.043 28.7306C28.0475 27.334 28.0475 25.9367 28.043 24.5386C28.043 24.014 28.2911 23.784 28.8101 23.7953C29.4333 23.8078 30.0564 23.7953 30.6796 23.7953C31.2734 23.8033 31.4399 23.9721 31.449 24.5884C31.4592 25.2897 31.4524 25.9877 31.4513 26.6867ZM29.2327 24.9544V28.2933H30.2638V24.9544H29.2327Z" fill="white"/>
<path d="M2.54794 26.6309C2.54794 25.9511 2.54114 25.2713 2.54794 24.5915C2.55587 23.9775 2.7213 23.8086 3.31729 23.7984C3.95861 23.7905 4.60106 23.7984 5.24351 23.7984C5.70807 23.7984 5.94942 24.0171 5.95055 24.4782C5.95055 25.9134 5.95055 27.3485 5.95055 28.7836C5.95055 29.2515 5.70014 29.4634 5.23898 29.4634C4.59653 29.4634 3.95408 29.4532 3.31276 29.4634C2.79382 29.4736 2.54114 29.2425 2.54568 28.7179C2.55361 28.0268 2.54908 27.3277 2.54794 26.6309ZM3.73653 24.9564V28.2953H4.76649V24.9541L3.73653 24.9564Z" fill="white"/>
<path d="M2.5509 18.6727C2.5509 17.9929 2.54184 17.3131 2.5509 16.6333C2.5611 16.0374 2.73559 15.8731 3.34405 15.8663C3.95251 15.8595 4.59043 15.8663 5.21362 15.8663C5.70423 15.8595 5.95691 16.0793 5.95578 16.5767V20.8254C5.95578 21.2786 5.74843 21.5369 5.27594 21.5369H3.23641C2.76392 21.5369 2.55657 21.2877 2.55657 20.8288L2.5509 18.6727ZM3.72137 20.3552H4.78532V17.0446H3.72137V20.3552Z" fill="white"/>
<path d="M17.0583 2.27151C17.924 2.27151 18.7896 2.27151 19.6553 2.27151C20.0644 2.27151 20.3918 2.39841 20.385 2.85614C20.3782 3.27874 20.07 3.41131 19.6825 3.41131C17.8945 3.41131 16.1065 3.41131 14.3186 3.41131C13.931 3.41131 13.6229 3.27762 13.6172 2.85501C13.6172 2.39501 13.9401 2.26925 14.348 2.27151C15.2511 2.27151 16.1553 2.27151 17.0583 2.27151Z" fill="white"/>
</g>
<defs>
<clipPath id="clip0_3931_1432">
<rect width="34" height="34" fill="white"/>
</clipPath>
</defs>
</svg>
