<svg width="22" height="34" viewBox="0 0 22 34" fill="none" xmlns="http://www.w3.org/2000/svg">
<g clip-path="url(#clip0_3931_1423)">
<path d="M0 11.9251C0.0780453 6.15201 3.82715 1.25314 9.01716 0.202618C14.9759 -1.00298 20.724 3.283 21.8215 9.75606C22.2771 12.4519 21.8215 15.0299 20.9298 17.5452C19.7757 20.803 18.0714 23.7272 16.2646 26.5845C14.8189 28.8725 13.3379 31.135 11.8746 33.407C11.4044 34.1357 10.6981 34.2122 10.2688 33.5281C7.89721 29.7477 5.48853 25.9939 3.20766 22.1466C1.78821 19.7492 0.74143 17.1288 0.264378 14.2863C0.131701 13.5109 0.0858498 12.7143 0 11.9251ZM11.0112 31.1881C11.1371 31.0118 11.2278 30.8939 11.3097 30.7632C12.2999 29.256 13.2921 27.7466 14.2667 26.2234C16.049 23.4361 17.7787 20.6118 18.9855 17.4581C19.9494 14.9407 20.5084 12.3712 19.9142 9.61054C18.7797 4.33883 13.695 0.925978 8.87375 2.25479C4.19689 3.5443 1.27019 8.34651 2.00381 13.5587C2.36672 16.1325 3.29156 18.5012 4.54614 20.6755C6.36752 23.8313 8.33036 26.8904 10.2356 29.9878C10.4766 30.3798 10.7332 30.759 11.0112 31.1881Z" fill="white"/>
<path d="M16.4948 11.9679C16.4899 15.2607 14.0149 17.9545 11.0004 17.9375C9.54538 17.9234 8.15485 17.2818 7.13367 16.1532C6.11249 15.0246 5.544 13.5012 5.55284 11.9169C5.55284 8.62409 8.0337 5.93035 11.0472 5.94735C12.5025 5.96054 13.8935 6.60193 14.9148 7.7307C15.9362 8.85948 16.5044 10.3834 16.4948 11.9679ZM14.6754 11.9594C14.6777 11.1733 14.4659 10.4041 14.0668 9.74899C13.6677 9.09389 13.0992 8.58231 12.4331 8.27892C11.7671 7.97552 11.0334 7.89392 10.3247 8.04443C9.61608 8.19494 8.96432 8.5708 8.45181 9.12451C7.93931 9.67822 7.58907 10.3849 7.44536 11.1553C7.30164 11.9257 7.3709 12.7252 7.64439 13.4527C7.91788 14.1802 8.38331 14.8032 8.98187 15.2428C9.58043 15.6824 10.2852 15.9189 11.0072 15.9225C11.9759 15.9247 12.9059 15.5089 13.5936 14.7662C14.2813 14.0234 14.6707 13.0141 14.6763 11.9594H14.6754Z" fill="white"/>
</g>
<defs>
<clipPath id="clip0_3931_1423">
<rect width="22" height="34" fill="white"/>
</clipPath>
</defs>
</svg>
